PathFileType	4	(x/y/z)	S09_BK_Cal_T01
DataRate	CameraRate	NumFrames	NumMarkers	Units	OrigDataRate	OrigDataStartFrame	OrigNumFrames
240	240	8	51	mm	240	301	2400
Frame#	Time	Sternum			R.Acromium			L.Acromium			Top.Head			R.ASIS			L.ASIS			R.PSIS			L.PSIS			R.Great.Tro			L.Great.Tro			R.Iliac.Crest			L.Iliac.Crest			V.Sacral			R.Thigh.Upper.Post			R.Thigh.Lower.Ant			R.Thigh.Lower.Post			R.Thigh.Upper.Ant			R.Knee.Lat			R.Knee.Med			R.Shank.Upper.Post			R.Shank.Lower.Ant			R.Shank.Lower.Post			R.Shank.Upper.Ant			R.Ankle.Lat			R.Ankle.Med			R.Heel.Upper			R.Heel.Med			R.Heel.Lat			R.Toe.Lat			R.Toe.Med			R.Toe.Tip			L.Thigh.Upper.Post			L.Thigh.Lower.Ant			L.Thigh.Lower.Post			L.Thigh.Upper.Ant			L.Knee.Lat			L.Knee.Med			L.Shank.Upper.Post			L.Shank.Lower.Ant			L.Shank.Lower.Post			L.Shank.Upper.Ant			L.Ankle.Lat			L.Ankle.Med			L.Heel.Upper			L.Heel.Med			L.Heel.Lat			L.Toe.Lat			L.Toe.Med			L.Toe.Tip			Cervical.Spine			Back			
		X1	Y1	Z1	X2	Y2	Z2	X3	Y3	Z3	X4	Y4	Z4	X5	Y5	Z5	X6	Y6	Z6	X7	Y7	Z7	X8	Y8	Z8	X9	Y9	Z9	X10	Y10	Z10	X11	Y11	Z11	X12	Y12	Z12	X13	Y13	Z13	X14	Y14	Z14	X15	Y15	Z15	X16	Y16	Z16	X17	Y17	Z17	X18	Y18	Z18	X19	Y19	Z19	X20	Y20	Z20	X21	Y21	Z21	X22	Y22	Z22	X23	Y23	Z23	X24	Y24	Z24	X25	Y25	Z25	X26	Y26	Z26	X27	Y27	Z27	X28	Y28	Z28	X29	Y29	Z29	X30	Y30	Z30	X31	Y31	Z31	X32	Y32	Z32	X33	Y33	Z33	X34	Y34	Z34	X35	Y35	Z35	X36	Y36	Z36	X37	Y37	Z37	X38	Y38	Z38	X39	Y39	Z39	X40	Y40	Z40	X41	Y41	Z41	X42	Y42	Z42	X43	Y43	Z43	X44	Y44	Z44	X45	Y45	Z45	X46	Y46	Z46	X47	Y47	Z47	X48	Y48	Z48	X49	Y49	Z49	X50	Y50	Z50	X51	Y51	Z51	

301	1.25	584.98	1098.4	285.38	482.59	1368.3	431.94	493	1365.9	117.1	550.81	1668.6	284.04	478.52	942.85	390.68	479.3	940.76	145.98	267.46	1009.5	312.6	274.27	1009.8	222.23	389.3	880.2	466.89	401.06	873.01	75.752	412.37	1039.5	430.21	405.43	1052.1	109.27	245.43	977.67	264.02	470.33	643.89	459.03	576.3	575.73	427.76	498.53	556.6	432.64	541.58	656.89	451.96	578.49	491.87	418.48	575.23	480.31	296.61	470.06	343.88	430.11	515.36	265.47	417.51	443.57	272.39	422.89	534.99	336.27	426.66	397.66	96.764	406.57	432.45	100.39	321.65	333.66	77.904	358.45	343.23	45.239	330.67	334.82	49.106	395.43	492.6	40.774	453.03	542.74	43.973	347.8	589.58	59.428	395.04	432.24	609.65	114.47	544.65	549.94	106.21	482.7	533.18	132.91	498.02	623.41	83.683	556.17	474.2	117.01	582.91	490.04	247.98	486.44	368.11	104.15	520.01	263.75	116.43	463.98	294.55	109.06	542.53	338.8	111.85	413.89	107.71	131.5	426.65	93.84	225.23	337.26	71.495	176.24	347.66	46.222	208.94	338.23	44.513	147.45	511.71	43.942	95.255	547.79	41.806	204.02	600.22	58.985	146.71	417.83	1425.4	283.66	327.94	1178.6	263.86
302	1.2542	584.98	1098.4	285.42	482.62	1368.3	431.99	493.03	1365.9	117.15	550.84	1668.6	284.12	478.53	942.85	390.72	479.3	940.76	146.02	267.47	1009.5	312.65	274.29	1009.8	222.28	389.31	880.21	466.94	401.05	873.01	75.781	412.39	1039.5	430.25	405.44	1052.1	109.32	245.44	977.67	264.07	470.33	643.89	459.06	576.3	575.72	427.79	498.54	556.6	432.66	541.58	656.88	451.99	578.48	491.87	418.51	575.22	480.32	296.63	470.06	343.87	430.12	515.37	265.46	417.52	443.58	272.38	422.9	534.99	336.26	426.67	397.67	96.759	406.57	432.45	100.39	321.65	333.66	77.904	358.45	343.24	45.24	330.67	334.82	49.107	395.44	492.6	40.772	453.03	542.74	43.971	347.8	589.58	59.426	395.04	432.24	609.66	114.5	544.64	549.94	106.24	482.7	533.18	132.94	498.02	623.42	83.709	556.17	474.21	117.03	582.91	490.03	248	486.44	368.11	104.16	520	263.76	116.44	463.98	294.55	109.07	542.53	338.8	111.86	413.89	107.71	131.5	426.65	93.842	225.24	337.26	71.495	176.24	347.66	46.222	208.94	338.23	44.513	147.45	511.71	43.943	95.254	547.79	41.808	204.02	600.22	58.985	146.71	417.86	1425.4	283.71	327.96	1178.7	263.91
303	1.2583	584.99	1098.4	285.46	482.65	1368.3	432.04	493.06	1365.9	117.2	550.87	1668.6	284.2	478.54	942.85	390.76	479.31	940.76	146.06	267.49	1009.6	312.71	274.3	1009.8	222.33	389.32	880.21	466.98	401.04	873.01	75.81	412.41	1039.5	430.3	405.44	1052.1	109.36	245.45	977.68	264.12	470.33	643.9	459.1	576.29	575.72	427.82	498.54	556.6	432.7	541.58	656.87	452.03	578.48	491.86	418.54	575.22	480.33	296.65	470.07	343.87	430.14	515.37	265.46	417.53	443.59	272.38	422.92	535	336.25	426.69	397.67	96.754	406.57	432.46	100.39	321.65	333.66	77.903	358.45	343.24	45.241	330.67	334.82	49.108	395.44	492.6	40.771	453.03	542.74	43.968	347.8	589.59	59.423	395.04	432.24	609.66	114.53	544.64	549.94	106.26	482.7	533.18	132.98	498.02	623.43	83.735	556.17	474.21	117.04	582.91	490.02	248.01	486.43	368.12	104.18	520	263.77	116.44	463.97	294.56	109.08	542.52	338.81	111.87	413.89	107.71	131.5	426.65	93.843	225.24	337.26	71.495	176.24	347.66	46.222	208.94	338.23	44.512	147.45	511.71	43.944	95.254	547.79	41.809	204.02	600.22	58.986	146.71	417.88	1425.4	283.75	327.97	1178.7	263.95
304	1.2625	585	1098.4	285.5	482.67	1368.3	432.09	493.08	1365.9	117.25	550.9	1668.6	284.27	478.56	942.86	390.8	479.32	940.76	146.1	267.5	1009.6	312.76	274.31	1009.8	222.38	389.34	880.22	467.03	401.03	873	75.838	412.43	1039.5	430.35	405.45	1052.1	109.4	245.46	977.68	264.17	470.34	643.9	459.14	576.29	575.71	427.85	498.54	556.61	432.73	541.58	656.87	452.07	578.47	491.86	418.56	575.21	480.34	296.68	470.07	343.86	430.16	515.38	265.46	417.53	443.59	272.38	422.93	535	336.25	426.7	397.67	96.749	406.58	432.46	100.39	321.65	333.66	77.903	358.45	343.24	45.242	330.67	334.82	49.109	395.44	492.6	40.769	453.03	542.74	43.966	347.8	589.59	59.421	395.04	432.24	609.67	114.56	544.64	549.94	106.28	482.7	533.18	133.01	498.02	623.44	83.762	556.17	474.22	117.06	582.91	490.01	248.03	486.43	368.12	104.19	519.99	263.77	116.45	463.97	294.56	109.09	542.52	338.81	111.88	413.88	107.71	131.49	426.65	93.844	225.24	337.25	71.495	176.24	347.66	46.222	208.94	338.23	44.512	147.45	511.71	43.945	95.254	547.79	41.81	204.02	600.22	58.987	146.71	417.91	1425.4	283.8	327.99	1178.7	263.99
305	1.2667	585.01	1098.4	285.54	482.7	1368.3	432.14	493.11	1365.9	117.3	550.94	1668.6	284.35	478.57	942.86	390.85	479.33	940.76	146.14	267.51	1009.6	312.81	274.32	1009.9	222.42	389.35	880.22	467.07	401.02	873	75.866	412.44	1039.6	430.39	405.46	1052.1	109.44	245.47	977.69	264.22	470.34	643.91	459.18	576.28	575.7	427.88	498.54	556.61	432.76	541.58	656.86	452.11	578.47	491.86	418.59	575.21	480.35	296.7	470.07	343.85	430.18	515.38	265.45	417.54	443.6	272.37	422.95	535	336.24	426.72	397.67	96.743	406.58	432.46	100.39	321.65	333.67	77.903	358.45	343.24	45.243	330.67	334.82	49.11	395.44	492.6	40.768	453.03	542.74	43.964	347.8	589.59	59.418	395.04	432.24	609.67	114.59	544.64	549.94	106.31	482.7	533.18	133.04	498.02	623.45	83.789	556.17	474.22	117.07	582.9	490	248.05	486.43	368.13	104.21	519.98	263.78	116.45	463.96	294.57	109.11	542.51	338.82	111.89	413.88	107.71	131.49	426.65	93.846	225.24	337.25	71.495	176.24	347.66	46.221	208.94	338.23	44.511	147.45	511.71	43.946	95.254	547.79	41.81	204.02	600.22	58.988	146.71	417.94	1425.4	283.85	328.01	1178.7	264.03
306	1.2708	585.02	1098.4	285.58	482.72	1368.3	432.19	493.14	1365.9	117.35	550.97	1668.6	284.42	478.58	942.87	390.89	479.34	940.76	146.18	267.52	1009.6	312.86	274.33	1009.9	222.47	389.36	880.23	467.12	401.01	873	75.894	412.45	1039.6	430.44	405.46	1052.1	109.48	245.48	977.69	264.27	470.34	643.91	459.22	576.28	575.69	427.92	498.54	556.61	432.79	541.58	656.86	452.15	578.47	491.86	418.63	575.21	480.36	296.73	470.07	343.85	430.2	515.38	265.45	417.55	443.6	272.37	422.97	535.01	336.24	426.74	397.68	96.737	406.58	432.46	100.39	321.65	333.67	77.903	358.45	343.24	45.244	330.67	334.82	49.111	395.44	492.6	40.766	453.04	542.74	43.961	347.8	589.59	59.415	395.04	432.24	609.67	114.62	544.64	549.94	106.33	482.7	533.18	133.07	498.03	623.46	83.817	556.16	474.23	117.09	582.9	489.99	248.07	486.42	368.13	104.22	519.98	263.79	116.46	463.96	294.57	109.12	542.51	338.82	111.9	413.87	107.71	131.49	426.65	93.847	225.24	337.25	71.495	176.24	347.66	46.221	208.94	338.23	44.511	147.45	511.71	43.947	95.254	547.79	41.81	204.02	600.22	58.988	146.71	417.96	1425.4	283.9	328.02	1178.7	264.08
307	1.275	585.03	1098.4	285.62	482.75	1368.3	432.24	493.16	1365.9	117.41	551.01	1668.6	284.49	478.59	942.87	390.93	479.35	940.76	146.21	267.53	1009.6	312.91	274.34	1009.9	222.52	389.37	880.23	467.16	401.01	872.99	75.922	412.47	1039.6	430.49	405.47	1052.1	109.52	245.48	977.69	264.32	470.35	643.92	459.26	576.27	575.69	427.95	498.54	556.62	432.82	541.58	656.85	452.19	578.46	491.86	418.66	575.2	480.37	296.76	470.08	343.84	430.22	515.38	265.44	417.56	443.61	272.36	422.98	535.01	336.23	426.77	397.68	96.732	406.59	432.46	100.39	321.65	333.67	77.903	358.45	343.24	45.245	330.67	334.82	49.112	395.44	492.6	40.764	453.04	542.75	43.958	347.8	589.59	59.411	395.04	432.24	609.68	114.65	544.64	549.95	106.36	482.7	533.18	133.1	498.03	623.47	83.846	556.16	474.24	117.1	582.9	489.97	248.09	486.42	368.14	104.24	519.97	263.79	116.47	463.95	294.57	109.13	542.51	338.83	111.91	413.87	107.71	131.49	426.65	93.848	225.24	337.25	71.495	176.24	347.66	46.221	208.94	338.23	44.511	147.45	511.71	43.948	95.254	547.79	41.809	204.02	600.22	58.989	146.71	417.99	1425.4	283.95	328.04	1178.7	264.12
308	1.2792	585.04	1098.4	285.65	482.77	1368.3	432.29	493.18	1365.9	117.46	551.04	1668.6	284.57	478.6	942.88	390.97	479.36	940.76	146.25	267.54	1009.6	312.96	274.34	1009.9	222.57	389.37	880.24	467.2	401	872.99	75.951	412.48	1039.6	430.53	405.48	1052.1	109.56	245.49	977.7	264.36	470.35	643.92	459.31	576.27	575.68	427.98	498.54	556.62	432.86	541.58	656.85	452.23	578.45	491.86	418.69	575.2	480.37	296.79	470.08	343.83	430.24	515.39	265.44	417.57	443.61	272.36	423	535.01	336.22	426.79	397.68	96.727	406.59	432.47	100.39	321.65	333.67	77.903	358.46	343.25	45.246	330.67	334.82	49.113	395.44	492.6	40.762	453.04	542.75	43.956	347.8	589.59	59.407	395.04	432.25	609.68	114.68	544.64	549.95	106.38	482.7	533.18	133.13	498.03	623.47	83.875	556.16	474.24	117.12	582.89	489.96	248.11	486.42	368.15	104.25	519.97	263.8	116.47	463.95	294.58	109.14	542.5	338.83	111.92	413.87	107.71	131.49	426.65	93.849	225.24	337.25	71.495	176.24	347.66	46.221	208.94	338.23	44.511	147.45	511.71	43.948	95.254	547.79	41.808	204.02	600.22	58.99	146.71	418.01	1425.5	284	328.06	1178.7	264.16
